<svg xmlns="http://www.w3.org/2000/svg" viewBox="0 0 440 390" width="440" height="390">
  <defs>
    <filter id="glow-C:\Users\Door\Documents\github-doriam-profile\assets\radar-backend-dark.svg" x="-20%" y="-20%" width="140%" height="140%">
      <feGaussianBlur stdDeviation="3.5" result="blur" />
      <feMerge><feMergeNode in="blur" /><feMergeNode in="SourceGraphic" /></feMerge>
    </filter>
  </defs>
  <rect width="440" height="390" rx="12" fill="#0a0c14" stroke="#1f2338" stroke-width="1.5"/>
  <text x="220" y="36" text-anchor="middle" font-family="JetBrains Mono, monospace" font-size="14" font-weight="700" fill="#00f3ff" letter-spacing="1">⚡ BACKEND ARCHITECTURE SIGNALS ⚡</text>
  <line x1="30" y1="52" x2="410" y2="52" stroke="#1a1e30" stroke-width="1"/>
  <polygon points="220.0,185.0 246.0,200.0 246.0,230.0 220.0,245.0 194.0,230.0 194.0,200.0" fill="none" stroke="#1a1e30" stroke-width="1" stroke-dasharray="3,3" opacity="0.8"/>
  <polygon points="220.0,155.0 272.0,185.0 272.0,245.0 220.0,275.0 168.0,245.0 168.0,185.0" fill="none" stroke="#1a1e30" stroke-width="1" stroke-dasharray="3,3" opacity="0.8"/>
  <polygon points="220.0,125.0 297.9,170.0 297.9,260.0 220.0,305.0 142.1,260.0 142.1,170.0" fill="none" stroke="#1a1e30" stroke-width="1" stroke-dasharray="3,3" opacity="0.8"/>
  <polygon points="220.0,95.0 323.9,155.0 323.9,275.0 220.0,335.0 116.1,275.0 116.1,155.0" fill="none" stroke="#1a1e30" stroke-width="1" stroke-dasharray="3,3" opacity="0.8"/>
  <line x1="220" y1="215" x2="220.0" y2="95.0" stroke="#1a1e30" stroke-width="1"/>
  <text x="220.0" y="77.0" text-anchor="middle" font-family="JetBrains Mono, monospace" font-size="11" fill="#94a3b8" font-weight="500">Microservicios <tspan fill="#00f3ff" font-weight="700">[96%]</tspan></text>
  <line x1="220" y1="215" x2="323.9" y2="155.0" stroke="#1a1e30" stroke-width="1"/>
  <text x="348.2" y="146.0" text-anchor="start" font-family="JetBrains Mono, monospace" font-size="11" fill="#94a3b8" font-weight="500">Event-Driven <tspan fill="#00f3ff" font-weight="700">[90%]</tspan></text>
  <line x1="220" y1="215" x2="323.9" y2="275.0" stroke="#1a1e30" stroke-width="1"/>
  <text x="348.2" y="284.0" text-anchor="start" font-family="JetBrains Mono, monospace" font-size="11" fill="#94a3b8" font-weight="500">Cloud AWS <tspan fill="#00f3ff" font-weight="700">[88%]</tspan></text>
  <line x1="220" y1="215" x2="220.0" y2="335.0" stroke="#1a1e30" stroke-width="1"/>
  <text x="220.0" y="353.0" text-anchor="middle" font-family="JetBrains Mono, monospace" font-size="11" fill="#94a3b8" font-weight="500">DB & Cache <tspan fill="#00f3ff" font-weight="700">[94%]</tspan></text>
  <line x1="220" y1="215" x2="116.1" y2="275.0" stroke="#1a1e30" stroke-width="1"/>
  <text x="91.8" y="284.0" text-anchor="end" font-family="JetBrains Mono, monospace" font-size="11" fill="#94a3b8" font-weight="500">IA Agents <tspan fill="#00f3ff" font-weight="700">[88%]</tspan></text>
  <line x1="220" y1="215" x2="116.1" y2="155.0" stroke="#1a1e30" stroke-width="1"/>
  <text x="91.8" y="146.0" text-anchor="end" font-family="JetBrains Mono, monospace" font-size="11" fill="#94a3b8" font-weight="500">High TPS APIs <tspan fill="#00f3ff" font-weight="700">[95%]</tspan></text>
  <polygon points="220.0,99.8 313.5,161.0 311.5,267.8 220.0,327.8 128.5,267.8 121.3,158.0" fill="rgba(0, 243, 255, 0.22)" stroke="#00f3ff" stroke-width="2.5" filter="url(#glow-C:\Users\Door\Documents\github-doriam-profile\assets\radar-backend-dark.svg)"/>
  <circle cx="220.0" cy="99.8" r="4" fill="#00f3ff" stroke="#0a0c14" stroke-width="1.5"/>
  <circle cx="313.5" cy="161.0" r="4" fill="#00f3ff" stroke="#0a0c14" stroke-width="1.5"/>
  <circle cx="311.5" cy="267.8" r="4" fill="#00f3ff" stroke="#0a0c14" stroke-width="1.5"/>
  <circle cx="220.0" cy="327.8" r="4" fill="#00f3ff" stroke="#0a0c14" stroke-width="1.5"/>
  <circle cx="128.5" cy="267.8" r="4" fill="#00f3ff" stroke="#0a0c14" stroke-width="1.5"/>
  <circle cx="121.3" cy="158.0" r="4" fill="#00f3ff" stroke="#0a0c14" stroke-width="1.5"/>
  <text x="220" y="375" text-anchor="middle" font-family="JetBrains Mono, monospace" font-size="10" fill="#94a3b8" opacity="0.6">status: verified_production · tps: ultra_high</text>
</svg>